<svg id="Layer_1" enable-background="new 0 0 256 256" height="512" viewBox="0 0 256 256" width="512" xmlns="http://www.w3.org/2000/svg"><g><g><path d="m58.271 138.18h89.54v68.483h-89.54z" fill="#4671c6"/></g><g><path d="m58.271 191.84v-53.66c-4.435-1.883-9.204-2.854-14.022-2.854h-18.125c-2.743 0-5.421.835-7.678 2.395-3.649 2.522-5.828 6.675-5.828 11.111v32.39c0 3.582 1.423 7.017 3.956 9.55l1.067 1.067h40.63z" fill="#4671c6"/></g><g><path d="m17.64 201.361h40.63v5.302h-40.63z" fill="#f9cfcf"/></g><g><path d="m17.64 191.84h40.63v9.521h-40.63z" fill="#e0ebfc"/></g><g><path d="m147.811 191.84v-53.66c4.435-1.883 9.204-2.854 14.022-2.854h18.124c2.743 0 5.421.835 7.678 2.395 3.649 2.522 5.828 6.675 5.828 11.111v32.39c0 3.582-1.423 7.017-3.956 9.55l-1.067 1.067h-40.63v.001z" fill="#4671c6"/></g><g><path d="m147.811 201.361h40.63v5.302h-40.63z" fill="#f9cfcf"/></g><g><path d="m147.811 191.84h40.63v9.521h-40.63z" fill="#e0ebfc"/></g><g><path d="m147.811 208.663h-89.54c-1.104 0-2-.896-2-2v-68.483c0-1.104.896-2 2-2h89.54c1.104 0 2 .896 2 2v68.483c0 1.105-.895 2-2 2zm-87.54-4h85.54v-64.483h-85.54z" fill="#3762cc"/></g><g><path d="m58.271 193.84-40.63-.001c-.53 0-1.039-.211-1.414-.586l-1.067-1.067c-2.929-2.928-4.542-6.822-4.542-10.964v-32.391c0-5.093 2.501-9.861 6.69-12.757 2.604-1.799 5.651-2.75 8.815-2.75h18.125c5.115 0 10.096 1.014 14.804 3.013.739.313 1.218 1.039 1.218 1.841v53.661c0 .53-.211 1.039-.586 1.414s-.883.587-1.413.587zm-39.802-4.001h37.802v-50.309c-3.849-1.463-7.886-2.205-12.022-2.205h-18.125c-2.348 0-4.609.706-6.541 2.041-3.109 2.148-4.965 5.687-4.965 9.466v32.391c0 3.073 1.197 5.962 3.37 8.136z" fill="#3762cc"/></g><g><path d="m188.442 193.839h-40.631c-1.104 0-2-.895-2-1.999v-53.66c0-.802.479-1.527 1.218-1.841 4.708-2 9.689-3.013 14.804-3.013h18.125c3.164 0 6.212.951 8.815 2.75 4.189 2.896 6.691 7.665 6.691 12.757v32.391c0 4.142-1.613 8.035-4.542 10.964l-1.066 1.067c-.375.373-.883.584-1.414.584zm-38.631-54.309v50.31l37.802-.001.48-.481c2.174-2.173 3.371-5.063 3.371-8.136v-32.391c0-3.779-1.856-7.317-4.965-9.466-1.932-1.335-4.193-2.041-6.541-2.041h-18.125c-4.136.002-8.173.743-12.022 2.206z" fill="#3762cc"/></g><g><path d="m103.041 130.591c-8.269 0-15.966-2.43-22.435-6.601v14.197l17.498 20.132c2.6 2.992 7.245 2.992 9.846 0l17.498-20.132v-14.179c-6.463 4.159-14.15 6.583-22.407 6.583z" fill="#f9cfcf"/></g><g><path d="m103.027 162.562c-2.469 0-4.813-1.068-6.433-2.932l-17.498-20.132c-.316-.364-.49-.83-.49-1.312v-14.197c0-.732.4-1.406 1.043-1.756.643-.351 1.426-.322 2.041.075 6.374 4.109 13.757 6.282 21.351 6.282 7.583 0 14.957-2.167 21.324-6.265.615-.396 1.397-.425 2.041-.074.642.351 1.042 1.024 1.042 1.756v14.179c0 .482-.174.948-.49 1.312l-17.498 20.132c-1.62 1.864-3.964 2.932-6.433 2.932zm-20.421-25.123 17.007 19.567c.859.989 2.104 1.556 3.414 1.556s2.554-.567 3.413-1.556l17.007-19.567v-9.94c-6.265 3.34-13.251 5.091-20.406 5.091-7.166 0-14.162-1.756-20.435-5.106z" fill="#3762cc"/></g><g><path d="m103.041 130.591c-22.901 0-41.466-18.565-41.466-41.466v-18.755c0-22.901 18.565-41.466 41.466-41.466 22.901 0 41.466 18.565 41.466 41.466v18.755c0 22.901-18.565 41.466-41.466 41.466z" fill="#f9cfcf"/></g><g><path d="m124.574 92.821c-3.216 0-5.823-2.607-5.823-5.823v-6.212c0-3.216 2.607-5.823 5.823-5.823 3.216 0 5.823 2.607 5.823 5.823v6.212c0 3.215-2.607 5.823-5.823 5.823z" fill="#3762cc"/></g><g><path d="m81.508 92.821c-3.216 0-5.823-2.607-5.823-5.823v-6.212c0-3.216 2.607-5.823 5.823-5.823 3.216 0 5.823 2.607 5.823 5.823v6.212c.001 3.215-2.607 5.823-5.823 5.823z" fill="#3762cc"/></g><g><path d="m46.225 80.389c1.069 7.9 3.639 15.352 7.638 21.908.85 1.393 2.549 2.924 6.479 3.458 2.169.295 3.906-1.821 3.233-3.904-2.393-7.412-1.999-12.299-2-21.623 0-.985.063-1.963.187-2.928 1.212-9.427 9.485-16.354 18.99-16.354h44.572c10.14 0 18.743 7.874 19.165 18.005.013.318.02.637.02.957-.002 9.649.399 14.52-2.005 21.953-.666 2.058 1.039 4.153 3.185 3.886 3.887-.482 5.64-1.99 6.531-3.451 3.996-6.552 6.567-14 7.637-21.9 2.186-16.143.978-31.366-8.828-46.228-22.837-34.612-71.14-35.338-94.932-1.53-10.507 14.929-12.174 30.739-9.872 47.751z" fill="#6bdddd"/></g><g><path d="m97.028 8.063v38.831h12.026c0-4.487 0-26.544 0-38.831-3.996-.43-8.028-.429-12.026 0z" fill="#e0ebfc"/></g><g><path d="m117.622 60.945v-8.918c0-2.835-2.298-5.133-5.133-5.133h-18.896c-2.835 0-5.133 2.298-5.133 5.133v8.918z" fill="#4671c6"/></g><g><path d="m103.041 132.59c-17.3 0-32.675-10.107-39.63-25.594-.978.63-2.154.9-3.339.74-3.787-.515-6.45-1.995-7.917-4.399-4.13-6.771-6.792-14.402-7.913-22.681-2.683-19.828.564-35.452 10.218-49.17 11.722-16.654 29.758-26.062 49.45-25.74 19.745.296 37.528 10.254 48.788 27.32 8.943 13.556 11.763 28.235 9.141 47.598-1.122 8.277-3.783 15.905-7.912 22.673-1.489 2.442-4.179 3.921-7.993 4.395-1.155.145-2.305-.126-3.262-.739-6.954 15.489-22.332 25.597-39.631 25.597zm-39.461-32.721c.845 0 1.629.54 1.903 1.386 5.277 16.35 20.371 27.335 37.559 27.335 17.177 0 32.268-10.977 37.551-27.313.338-1.047 1.458-1.625 2.509-1.291 1.049.333 1.631 1.452 1.303 2.502-.144.459.088.804.194.932.126.151.398.399.843.343 3.831-.475 4.764-2.005 5.07-2.507 3.839-6.293 6.316-13.402 7.363-21.128 2.483-18.334-.144-32.168-8.516-44.858-10.52-15.945-27.108-25.249-45.509-25.524-18.332-.266-35.169 8.487-46.118 24.043-9.162 13.019-12.1 27.308-9.526 46.332 1.045 7.728 3.523 14.838 7.364 21.134.301.494 1.219 1.999 5.041 2.518.442.059.733-.189.863-.343.109-.13.348-.484.198-.958-.332-1.051.249-2.173 1.299-2.508.202-.065.407-.095.609-.095z" fill="#3762cc"/></g><g><path d="m87.174 116.662h31.734c2.913 0 5.275 2.362 5.275 5.275v1.691c0 3.845-3.117 6.963-6.963 6.963h-28.358c-3.845 0-6.963-3.117-6.963-6.963v-1.691c0-2.913 2.362-5.275 5.275-5.275z" fill="#6bdddd"/></g><g><path d="m117.22 132.59h-28.358c-4.942 0-8.962-4.021-8.962-8.962v-1.691c0-4.011 3.263-7.274 7.274-7.274h31.734c4.011 0 7.275 3.263 7.275 7.274v1.691c0 4.942-4.02 8.962-8.963 8.962zm-30.046-13.927c-1.806 0-3.274 1.469-3.274 3.274v1.691c0 2.736 2.226 4.962 4.962 4.962h28.358c2.736 0 4.963-2.226 4.963-4.962v-1.691c0-1.806-1.469-3.274-3.275-3.274z" fill="#3762cc"/></g><g><path d="m113.229 110.647h-20.373c-11.374 0-22.543-3.056-32.301-8.838-.95-.563-1.264-1.79-.701-2.74s1.791-1.264 2.74-.701c9.141 5.417 19.605 8.279 30.262 8.279h20.373c10.655 0 21.119-2.862 30.26-8.278.95-.563 2.177-.249 2.74.701.563.951.249 2.177-.701 2.74-9.758 5.781-20.927 8.837-32.299 8.837z" fill="#e0ebfc"/></g><g><path d="m113.229 99.065h-20.373c-11.374 0-22.543-3.056-32.301-8.838-.95-.563-1.264-1.79-.701-2.74s1.79-1.264 2.74-.701c9.141 5.417 19.606 8.279 30.262 8.279h20.373c10.655 0 21.119-2.862 30.26-8.278.95-.563 2.177-.249 2.74.701.563.951.249 2.177-.701 2.74-9.758 5.782-20.927 8.837-32.299 8.837z" fill="#e0ebfc"/></g><g><path d="m114.613 138.525c-1.104 0-2-.896-2-2v-39.46c0-1.104.896-2 2-2s2 .896 2 2v39.46c0 1.105-.895 2-2 2z" fill="#e0ebfc"/></g><g><path d="m91.469 138.525c-1.104 0-2-.896-2-2v-39.39c0-1.104.896-2 2-2s2 .896 2 2v39.39c0 1.105-.896 2-2 2z" fill="#e0ebfc"/></g><g><path d="m115.554 138.525h-25.026c-17.068 0-30.954-13.886-30.954-30.954l-.003-22.88c-.003-2.541-.005-3.995.015-4.983.001-.047.003-.094.007-.141.023-.911.083-1.737.185-2.523 1.327-10.318 10.343-18.099 20.973-18.099h44.572c11.402 0 20.698 8.751 21.163 19.922.012.286.017.574.019.864h.002c.004.534.004 1.503.003 3.693l-.001 24.146c-.001 17.07-13.886 30.955-30.955 30.955zm-51.971-58.608c-.016.969-.014 2.381-.011 4.77l.003 22.885c0 14.862 12.091 26.954 26.954 26.954h25.026c14.862 0 26.954-12.092 26.954-26.954l.001-24.148c.001-2.162.001-3.123-.003-3.654 0-.013 0-.04 0-.04-.003-.232-.006-.464-.016-.694-.375-9.023-7.916-16.09-17.167-16.09h-44.573c-8.624 0-15.935 6.281-17.006 14.609-.088.683-.139 1.414-.156 2.234-.001.043-.003.086-.006.128z" fill="#e0ebfc"/></g><g><path d="m58.271 208.663h-40.63c-1.104 0-2-.896-2-2v-14.824c0-.53.211-1.039.586-1.414s.884-.586 1.414-.586l40.63.002c1.104 0 2 .896 2 2v14.822c0 1.105-.896 2-2 2zm-38.63-4h36.63v-10.822l-36.63-.002z" fill="#3762cc"/></g><g><path d="m188.441 208.663h-40.63c-1.104 0-2-.896-2-2v-14.822c0-1.104.896-2 2-2l40.63-.002c.53 0 1.039.21 1.414.586.375.375.586.884.586 1.414v14.824c0 1.105-.896 2-2 2zm-38.63-4h36.63v-10.824l-36.63.002z" fill="#3762cc"/></g><g><path d="m123.194 197.012h-40.306c-2.726 0-4.935-2.21-4.935-4.935v-14.308c0-2.726 2.21-4.935 4.935-4.935h40.306c2.726 0 4.935 2.21 4.935 4.935v14.308c0 2.725-2.209 4.935-4.935 4.935z" fill="#6bdddd"/></g><g><path d="m235.09 248.261h-82.917c-4.579 0-8.292-3.712-8.292-8.292v-107.792c0-4.579 3.712-8.292 8.292-8.292h82.917c4.579 0 8.292 3.712 8.292 8.292v107.792c0 4.58-3.712 8.292-8.292 8.292z" fill="#e0ebfc"/></g><g><path d="m235.09 250.261h-82.917c-5.675 0-10.292-4.617-10.292-10.292v-107.792c0-5.675 4.617-10.292 10.292-10.292h82.917c5.675 0 10.292 4.617 10.292 10.292v107.792c0 5.675-4.617 10.292-10.292 10.292zm-82.917-124.376c-3.469 0-6.292 2.823-6.292 6.292v107.792c0 3.469 2.822 6.292 6.292 6.292h82.917c3.469 0 6.292-2.823 6.292-6.292v-107.792c0-3.469-2.822-6.292-6.292-6.292z" fill="#3762cc"/></g><g><path d="m230.72 148.137h-74.176c-2.442 0-4.422-1.98-4.422-4.422 0-2.442 1.98-4.422 4.422-4.422h74.176c2.442 0 4.422 1.98 4.422 4.422 0 2.442-1.98 4.422-4.422 4.422z" fill="#a4c9ff"/></g><g><path d="m230.72 165.826h-74.176c-2.442 0-4.422-1.98-4.422-4.422 0-2.442 1.98-4.422 4.422-4.422h74.176c2.442 0 4.422 1.98 4.422 4.422 0 2.442-1.98 4.422-4.422 4.422z" fill="#a4c9ff"/></g><g><path d="m230.72 183.515h-74.176c-2.442 0-4.422-1.98-4.422-4.422 0-2.442 1.98-4.422 4.422-4.422h74.176c2.442 0 4.422 1.98 4.422 4.422 0 2.442-1.98 4.422-4.422 4.422z" fill="#a4c9ff"/></g><g><path d="m209.828 233.71h-32.728c-1.539 0-2.786-1.247-2.786-2.786v-30.384c0-1.539 1.247-2.786 2.786-2.786h32.728c1.539 0 2.786 1.247 2.786 2.786v30.384c0 1.539-1.247 2.786-2.786 2.786z" fill="#f9a7a7"/></g><g><path d="m195.171 219.113h-2.92c-1.105 0-2-.895-2-2v-2.92c0-1.105.895-2 2-2h2.92c1.105 0 2 .895 2 2v2.92c0 1.105-.896 2-2 2z" fill="#4671c6"/></g><g><path d="m183.171 219.113h-2.92c-1.105 0-2-.895-2-2v-2.92c0-1.105.895-2 2-2h2.92c1.105 0 2 .895 2 2v2.92c0 1.105-.896 2-2 2z" fill="#4671c6"/></g><g><path d="m207.171 219.113h-2.92c-1.105 0-2-.895-2-2v-2.92c0-1.105.895-2 2-2h2.92c1.105 0 2 .895 2 2v2.92c0 1.105-.896 2-2 2z" fill="#4671c6"/></g><g><path d="m238.085 163.583h-15.338v53.653l7.11 10.308c.244.353.874.353 1.117 0l7.11-10.308v-53.653z" fill="#f9cfcf"/></g><g><path d="m226.023 144.338h8.787c1.809 0 3.276 1.466 3.276 3.276v8.479h-15.338v-8.479c-.001-1.809 1.466-3.276 3.275-3.276z" fill="#f9a7a7"/></g><g><path d="m238.085 158.093h-15.338c-1.104 0-2-.896-2-2v-8.479c0-2.909 2.367-5.275 5.276-5.275h8.787c2.909 0 5.275 2.367 5.275 5.275v8.479c0 1.105-.896 2-2 2zm-13.338-4h11.338v-6.479c0-.703-.572-1.275-1.275-1.275h-8.787c-.704 0-1.276.572-1.276 1.275z" fill="#3762cc"/></g><g><path d="m225.739 221.573 4.119 5.971c.244.353.874.353 1.117 0l4.119-5.971z" fill="#4671c6"/></g><g><path d="m222.747 156.093h15.338v7.49h-15.338z" fill="#e0ebfc" transform="matrix(-1 0 0 -1 460.832 319.676)"/></g><g><path d="m238.085 165.583h-15.338c-1.104 0-2-.896-2-2v-7.49c0-1.104.896-2 2-2h15.338c1.104 0 2 .896 2 2v7.49c0 1.105-.896 2-2 2zm-13.338-4h11.338v-3.49h-11.338z" fill="#3762cc"/></g><path d="m238.085 163.583h-15.338v53.627c1.442.209 2.564-2.206 3.942-2.206.726 0 .932.365 2.94 1.973 1.501 1.202 3.019-1.973 4.514-1.973 1.378 0 2.5 2.416 3.942 2.206z" fill="#6bdddd"/><g><path d="m230.416 229.808c-.893 0-1.717-.422-2.205-1.128l-7.111-10.308c-.23-.334-.354-.73-.354-1.136v-53.653c0-1.104.896-2 2-2h15.338c1.104 0 2 .896 2 2v53.653c0 .406-.124.802-.354 1.136l-7.11 10.308c-.487.706-1.311 1.128-2.204 1.128zm-5.669-13.195 5.669 8.218 5.669-8.218v-51.03h-11.338z" fill="#3762cc"/></g></g></svg>